<?xml version="1.0" encoding="UTF-8" standalone="no"?>
<svg
   xmlns:dc="http://purl.org/dc/elements/1.1/"
   xmlns:cc="http://creativecommons.org/ns#"
   xmlns:rdf="http://www.w3.org/1999/02/22-rdf-syntax-ns#"
   xmlns:svg="http://www.w3.org/2000/svg"
   xmlns="http://www.w3.org/2000/svg"
   xmlns:sodipodi="http://sodipodi.sourceforge.net/DTD/sodipodi-0.dtd"
   xmlns:inkscape="http://www.inkscape.org/namespaces/inkscape"
   version="1.1"
   id="svg2"
   width="1920"
   height="1079"
   viewBox="0 0 1920 1079"
   sodipodi:docname="1920x1080-noakademy.svg"
   inkscape:version="1.0.2 (e86c870879, 2021-01-15)"
   inkscape:export-filename="/home/cordlandwehr/Talks/2021_Akademy_logging/1920x1080-noakademy.png"
   inkscape:export-xdpi="90"
   inkscape:export-ydpi="90">
  <metadata
     id="metadata8">
    <rdf:RDF>
      <cc:Work
         rdf:about="">
        <dc:format>image/svg+xml</dc:format>
        <dc:type
           rdf:resource="http://purl.org/dc/dcmitype/StillImage" />
        <dc:title></dc:title>
      </cc:Work>
    </rdf:RDF>
  </metadata>
  <defs
     id="defs6" />
  <sodipodi:namedview
     pagecolor="#ffffff"
     bordercolor="#666666"
     borderopacity="1"
     objecttolerance="10"
     gridtolerance="10"
     guidetolerance="10"
     inkscape:pageopacity="0"
     inkscape:pageshadow="2"
     inkscape:window-width="1920"
     inkscape:window-height="1015"
     id="namedview4"
     showgrid="false"
     inkscape:zoom="0.48282135"
     inkscape:cx="791.18185"
     inkscape:cy="378.22307"
     inkscape:window-x="0"
     inkscape:window-y="0"
     inkscape:window-maximized="1"
     inkscape:current-layer="g10" />
  <g
     inkscape:groupmode="layer"
     inkscape:label="Image"
     id="g10">
    <g
       id="g901"
       transform="matrix(0.86889305,0,0,0.86889305,232.24005,11.246042)">
      <path
         id="path969-5-3"
         style="font-size:44.3711px;line-height:1.25;font-family:Cabin;-inkscape-font-specification:Cabin;fill:#a2d2da;fill-opacity:1;stroke-width:3.07924"
         d="m 1423.2014,30.445261 -30.9166,86.218349 h 12.3176 l 8.2523,-23.279066 h 33.0095 l 8.2524,23.279066 h 12.3161 l -30.9152,-86.218349 z" />
      <path
         id="path971-3-6"
         style="font-size:44.3711px;line-height:1.25;font-family:Cabin;-inkscape-font-specification:Cabin;fill:#a2d2da;fill-opacity:1;stroke-width:3.07924"
         d="M 1470.1017,30.445052 V 116.6634 h 11.7012 V 30.445052 Z m 48.4053,0 -31.9015,0.236693 V 70.967828 116.4267 l 31.9015,0.23669 h 12.3165 l -31.9001,-45.695562 31.9001,-40.522776 z" />
      <path
         id="path973-5-7"
         style="font-size:44.3711px;line-height:1.25;font-family:Cabin;-inkscape-font-specification:Cabin;fill:#a2d2da;fill-opacity:1;stroke-width:3.07924"
         d="m 1563.0947,30.445261 -30.9166,86.218349 h 12.3175 l 8.2523,-23.279066 h 33.0095 l 8.2525,23.279066 h 12.3175 l -30.9166,-86.218349 z" />
      <path
         id="path975-6-5"
         style="font-size:44.3711px;line-height:1.25;font-family:Cabin;-inkscape-font-specification:Cabin;fill:#a2d2da;fill-opacity:1;stroke-width:3.07924"
         d="m 1608.9041,30.445261 v 86.218349 h 12.486 V 30.445261 Z m 17.712,0 v 31.056964 l 3.4644,2.272602 c 0,8.7e-4 0,0.0023 0,0.0027 0.746,-0.406381 1.5317,-0.74889 2.3442,-1.033131 v 3.309945 c -2.4385,1.097143 -4.4675,2.937293 -5.8113,5.227369 v 12.947783 c 2.2268,3.80306 6.3445,6.364401 11.0696,6.364401 4.9879,0 9.3073,-2.846551 11.4304,-7.001667 1.7759,2.599136 3.1513,4.612556 3.1513,4.612556 0.06,0.0891 0.1706,0.12601 0.2721,0.094 l 0.6977,-0.22033 2.1561,3.552801 c 0.099,0.16116 0.075,0.36861 -0.059,0.50252 l -3.1682,3.16675 c -0.1379,0.13819 -0.3514,0.15872 -0.5138,0.0519 l -5.9068,-3.87279 c -1.2058,0.71018 -2.5135,1.2677 -3.8966,1.64091 l -1.6466,6.73639 c -0.045,0.184826 -0.2106,0.312916 -0.3986,0.312916 h -4.4779 c -0.1935,0 -0.3621,-0.1354 -0.4014,-0.325796 l -1.3981,-6.72376 c -1.3418,-0.36249 -2.6114,-0.89706 -3.7886,-1.57633 l -3.1218,1.89639 v 23.222876 h 14.1886 c 6.4048,0 12.2349,-0.98548 17.4901,-2.95619 5.2553,-2.05282 9.7313,-4.92645 13.4264,-8.62155 3.7773,-3.6951 6.691,-8.211166 8.7438,-13.548566 2.1349,-5.337361 3.2032,-11.331686 3.2032,-17.982869 0,-6.651147 -1.0683,-12.645541 -3.2032,-17.982868 -2.0528,-5.337361 -5.0079,-9.853467 -8.8673,-13.548526 -3.7772,-3.77724 -8.2933,-6.650869 -13.5485,-8.621583 -5.2553,-1.970714 -11.0039,-2.956193 -17.2445,-2.956193 z m 15.4436,21.204367 -0.084,14.595719 10.6456,-14.253211 8.585,1.974996 -11.0752,14.251818 10.9896,15.110875 -8.4138,2.662828 -10.7312,-15.71308 v 14.16619 l -7.9844,1.20157 V 52.421665 Z" />
      <path
         id="path977-2-3"
         style="font-size:44.3711px;line-height:1.25;font-family:Cabin;-inkscape-font-specification:Cabin;fill:#a2d2da;fill-opacity:1;stroke-width:3.07924"
         d="m 1688.6279,30.445261 v 86.218349 h 53.7016 v -10.59237 h -42.0002 V 77.341627 h 42.295 V 30.445261 h -1.4023 -44.5635 z" />
      <path
         id="path979-9-5"
         style="font-size:44.3711px;line-height:1.25;font-family:Cabin;-inkscape-font-specification:Cabin;fill:#a2d2da;fill-opacity:1;stroke-width:3.07924"
         d="m 1819.1795,30.384835 16.5353,25.939796 12.9219,20.554749 v 39.78399 h 12.1931 V 76.87938 l 10.2595,-16.389019 -0.4562,0.0992 0.067,-0.04873 -18.6167,-30.155754 z m 58.4022,0.06022 -9.9223,15.524043 6.2171,10.070076 16.0217,-25.594119 z" />
      <path
         id="path981-1-6"
         style="fill:#a2d2da;fill-opacity:1;stroke:none;stroke-width:37.2844;stroke-linecap:round"
         d="m 1776.656,30 -5.1435,16.266633 c 8.2002,23.518008 16.6756,46.947291 25.0484,70.406437 h 38.4643 l 0.7517,-0.39879 L 1804.9842,30 l -14.1641,7.503765 z m -8.7045,24.386253 -22.0882,61.888027 0.7517,0.39879 h 38.4643 l 2.5519,-7.14807 z"
         sodipodi:nodetypes="cccccccccccccc" />
      <text
         xml:space="preserve"
         style="font-size:21.6634px;line-height:1.25;font-family:Cabin;-inkscape-font-specification:Cabin;fill:#d7d2da;fill-opacity:1;stroke-width:0.541585"
         x="1389.3826"
         y="140.83243"
         id="text2418-2"
         inkscape:export-xdpi="300"
         inkscape:export-ydpi="300"><tspan
           sodipodi:role="line"
           id="tspan2416-9"
           x="1389.3826"
           y="140.83243"
           style="font-style:normal;font-variant:normal;font-weight:normal;font-stretch:normal;font-family:Coolvetica;-inkscape-font-specification:Coolvetica;fill:#d7d2da;fill-opacity:1;stroke-width:0.541585">TWENTYTWENTYONE</tspan></text>
    </g>
    <rect
       style="opacity:0.997;fill:#a2d2da;fill-opacity:1;stroke:none;stroke-width:2.51832;stroke-linecap:round;stroke-linejoin:round"
       id="rect870"
       width="1287.0024"
       height="8"
       x="44.051094"
       y="146.44374" />
  </g>
</svg>
